<?xml version="1.0" encoding="UTF-8"?>
<!DOCTYPE svg PUBLIC "-//W3C//DTD SVG 1.1//EN" "http://www.w3.org/Graphics/SVG/1.1/DTD/svg11.dtd">
<!-- Creator: CorelDRAW X6 -->
<svg xmlns="http://www.w3.org/2000/svg" xml:space="preserve" width="32px" height="32px" version="1.1" style="shape-rendering:geometricPrecision; text-rendering:geometricPrecision; image-rendering:optimizeQuality; fill-rule:evenodd; clip-rule:evenodd"
viewBox="0 0 460 460"
 xmlns:xlink="http://www.w3.org/1999/xlink">
 <defs>
  <style type="text/css">
   <![CDATA[
    .fil0 {fill:none}
    .fil1 {fill:#FEFEFE}
   ]]>
  </style>
 </defs>
 <g id="Layer_x0020_1">
  <metadata id="CorelCorpID_0Corel-Layer"/>
  <rect class="fil0" width="460" height="460"/>
  <path class="fil1" d="M140 234l2 48 -15 8 8 14 -16 10 2 17 23 -1 9 6 0 14 -4 16 -36 7 -5 -14 -15 -3c0,0 -20,-33 -15,-66 5,-33 12,-55 12,-55l19 -3 8 -37c0,0 3,-18 8,-37l55 44 4 -30 -26 -26 29 17 2 -12 -47 -28 -1 -1c2,-3 -4,-1 7,-6 11,-5 51,-16 51,-16l12 -17 7 -4 20 2 -20 2 -7 4 -15 67 -8 57 -32 9 -15 17zm-39 -172l257 0c17,0 32,10 38,25l-12 -1 -126 77 1 8 37 -21 -35 31 6 34 115 -102 10 1 7 -7 0 250c0,23 -19,42 -42,42l-257 0c-23,0 -42,-19 -42,-42l0 -251 2 -1c25,21 36,30 61,51 1,-3 2,-7 3,-10 1,-2 1,-4 2,-7 1,-4 -40,-36 -37,-35l45 18 4 -4 -72 -39c7,-11 20,-19 35,-19zm107 95l40 0 12 63 -12 20 -40 0 -11 -23 11 -60zm-31 131l5 30 21 19 7 -2 -4 20 -1 13 -31 -11 -18 -79 2 -1 -7 -4 2 -38 41 8 13 9 39 0 13 -6 46 -10 0 37 -20 14 -27 -5 -23 -16 -25 0 -12 11 -20 10 0 0zm72 -27l14 5 26 -2 9 -19 -39 7 -11 8zm59 -137l-4 -5 -4 0c0,0 -25,-23 -37,-24 -13,-1 -15,-1 -15,-1l-3 -9 5 6c0,0 5,-2 20,3 15,5 32,20 32,20l10 -1 6 7 -9 5zm18 55c0,0 17,9 9,19l-2 6 4 10 10 5c0,0 1,-3 0,-12 -1,-8 -2,-18 -7,-27 -5,-9 -8,-12 -8,-12l-15 11c3,-1 5,-1 9,0zm6 182l16 2 9 -26 20 -6c0,0 7,-25 -2,-59 -5,-22 -14,-36 -18,-44l-11 2 13 -6c7,11 25,41 27,74 2,42 -2,45 -2,45l-22 5 -10 28c0,0 -29,-13 -35,-12l14 -4zm-14 -173c4,0 8,4 8,9 0,5 -3,9 -8,9 -4,0 -8,-4 -8,-9 0,-5 3,-9 8,-9zm-10 -2c0,0 -15,12 -6,24 9,13 23,3 23,3l4 9 14 0 -11 -5 -5 -10c-16,10 -30,0 -19,-20zm-57 -73l7 36 35 -18 -24 -1 -18 -17zm22 210l-20 12 -3 26 -1 6 12 -6 12 -39zm17 29l6 -28 31 -7 5 11 -3 27 -36 6 -3 -9zm8 -4l3 -11 15 -3 3 5 -1 11 -17 2 -1 -3zm36 -97c0,0 5,31 8,53 2,22 -4,51 -4,51l9 -26 17 -2 0 -18 -17 0 -1 -12 17 -2 -3 -20 -15 3 -2 -14 15 -6 -8 -21 -19 5 2 10zm-25 -17l2 43 -24 19 -20 64 5 17 33 -9 -25 -1 -4 -10 12 -37 39 -11 13 5 -13 -12 -35 6 3 -9 31 -22 -5 -36 19 -11 -29 3zm-101 71l6 -6 13 0 7 7 -4 3 -4 -5 -10 0 -6 6 -2 -5zm-3 -17l7 -7 16 0 8 8 -5 4 -5 -6 -12 0 -7 7 -2 -6zm3 61l4 -15 7 -4 7 0 5 4c0,0 5,14 4,15 -1,1 0,10 0,10l-4 1 -4 22 -14 0 -2 -21 -5 -2 2 -11zm3 -258l26 0 12 57 -12 -2 -26 0 -11 1 11 -57zm6 13l15 0 7 32 -7 -1 -15 0 -6 1 6 -32z"/>
 </g>
</svg>
