<?xml version="1.0" encoding="UTF-8"?>
<!DOCTYPE svg PUBLIC "-//W3C//DTD SVG 1.1//EN" "http://www.w3.org/Graphics/SVG/1.1/DTD/svg11.dtd">
<!-- Creator: CorelDRAW X6 -->
<svg xmlns="http://www.w3.org/2000/svg" xml:space="preserve" width="32px" height="32px" version="1.1" style="shape-rendering:geometricPrecision; text-rendering:geometricPrecision; image-rendering:optimizeQuality; fill-rule:evenodd; clip-rule:evenodd"
viewBox="0 0 436 436"
 xmlns:xlink="http://www.w3.org/1999/xlink">
 <defs>
  <style type="text/css">
   <![CDATA[
    .fil1 {fill:none}
    .fil0 {fill:white}
   ]]>
  </style>
 </defs>
 <g id="Layer_x0020_1">
  <metadata id="CorelCorpID_0Corel-Layer"/>
  <path class="fil0" d="M218 329c17,0 33,1 48,2 0,-1 0,-1 0,-3 -2,-6 -3,-20 -5,-28 -2,-4 -4,-9 -7,-13 -2,-2 -9,-15 -11,-18 -2,-3 -3,-8 -3,-11 0,-2 1,-7 0,-10 -1,-2 0,-2 0,-4 -1,-1 -1,0 -2,-2 0,-1 -1,-2 -1,-2 -7,-14 0,-12 0,-15 -1,-2 -2,-1 -2,-3 1,-2 2,-2 1,-4 -2,-3 -6,-8 -7,-10 -1,-3 -6,-16 -7,-17 -2,0 -2,1 -3,1 -2,0 -2,-1 -4,1 -3,2 -5,-1 -7,-1 -1,2 -1,11 -2,14 -1,3 -3,8 -4,11 0,1 3,3 3,7l-3 17c-1,6 -2,2 1,7 1,1 2,2 2,3 1,3 1,11 1,14 0,7 -5,16 -9,21 -4,5 -5,18 -5,25 0,4 -1,4 -3,6 1,1 2,1 3,3 2,2 2,5 2,8 9,0 18,0 28,0zm95 6c46,7 77,18 77,31 0,21 -77,37 -172,37 -95,0 -172,-17 -172,-37 0,-14 37,-27 91,-33 1,-1 3,-3 3,-4 -1,-1 -4,-2 -5,-4 0,-2 2,-5 3,-6 1,-2 3,-4 4,-5 3,-4 3,-1 7,-3 0,-2 -4,-3 -2,-5 7,-10 9,-15 10,-27 0,-2 1,-2 1,-3 1,-2 -1,0 -2,-6 -1,-12 -4,-26 -2,-39 1,-5 2,-9 3,-14 1,-6 2,-5 4,-6 1,0 0,-1 1,-1 2,-1 2,0 3,0 0,-2 0,-8 0,-11l3 -19c1,-3 0,-2 0,-4 0,-3 -1,-2 -1,-5 -1,0 -1,0 -1,2 0,1 0,1 -1,2 0,0 -6,4 -6,4 -4,2 -1,3 -4,8 2,2 1,3 1,5 0,2 1,5 1,8 -4,0 -6,-1 -12,-1 -2,0 -1,-1 -2,-1 -2,0 -3,3 -4,5 1,1 9,10 9,12 2,4 -3,12 -6,14 -1,1 -2,1 -5,0l0 -3c-1,-1 -7,-7 -8,-7 -1,2 -2,4 -3,6 -1,1 -1,2 -2,2 -3,1 -6,12 -7,15 -2,1 -3,0 -4,0 -1,2 -5,10 -6,11 -2,1 -3,0 -4,3 -1,2 -2,9 -3,10 -4,7 -7,14 -11,21 -1,0 -2,1 -3,0 -2,0 -1,-1 -3,-1 0,-3 0,-4 1,-7l8 -19c0,-1 0,0 0,0l2 -3c1,-2 2,-3 3,-5 2,-3 0,-4 1,-7 4,-9 10,-19 10,-29 0,-2 1,-3 2,-4 -5,-1 -11,-3 -14,-7 -3,-4 2,-13 5,-14 2,-1 5,0 7,1 2,0 7,3 8,4 0,-1 1,-3 1,-5 2,-7 -1,-8 0,-10 1,-4 3,-5 4,-7 2,-6 5,-11 7,-16 1,-1 1,-3 1,-5 0,-1 13,-21 14,-21 2,-1 4,0 5,-1 2,-1 0,-1 4,-1 1,-9 1,-13 4,-22 0,-2 1,-3 0,-5 -1,-1 -3,-1 -4,-2 -1,-6 -4,-16 -3,-22 1,-3 1,-7 4,-9 4,-2 6,-1 11,0 3,1 6,1 8,2 1,0 2,0 3,1 2,-1 2,-3 5,-3 3,0 4,1 7,1 0,-2 1,-3 0,-5 -3,-4 -5,-15 -7,-21 -3,-8 -1,-6 0,-8 0,-2 -1,-2 -1,-5l2 1c1,2 0,2 1,3l3 2c3,9 5,18 7,27 0,1 0,2 1,3 0,-4 0,-7 1,-10 1,-3 1,-2 3,-3 2,-1 1,-2 2,-3 -2,-2 -10,-9 -11,-11 1,0 1,0 1,-1 1,0 1,1 2,1 2,1 10,7 10,7 1,0 3,-1 4,-2 2,-2 1,-2 2,-4 1,-2 8,-2 9,0 1,1 0,3 2,4 0,0 3,2 3,2 2,-2 9,-7 11,-8l1 0c0,0 0,0 1,0l1 0c-1,2 -9,8 -10,11 0,3 5,4 5,8 0,1 0,2 0,2 0,1 0,0 1,2 0,2 0,7 0,8 -1,3 0,3 -2,6 5,1 3,2 5,3l8 1c1,-1 2,-2 2,-3 -2,-2 -2,-2 -2,-6 0,0 1,-1 2,-1 2,0 5,1 6,1 0,-3 1,-5 2,-8l6 -23c1,-2 1,-2 2,-3 1,-1 1,-5 3,-5 1,1 0,3 0,4 0,2 2,1 1,6 -1,7 -6,22 -7,28l12 -2c0,-2 0,-6 0,-7 0,-1 1,-1 1,-3 0,-1 -1,-1 -1,-2 2,-1 9,-1 11,-1 5,0 5,1 9,3 2,1 6,3 7,5 0,1 1,4 1,5 0,2 1,2 2,3 1,1 3,8 2,10 -1,4 -3,1 0,9 1,4 3,-1 4,8 0,1 1,3 1,5 0,2 -1,2 -2,3 1,9 6,30 8,37 4,16 1,59 3,81 0,4 1,10 1,14l0 1c0,5 -16,7 -21,7 -1,0 -3,-1 -4,-1 0,-1 0,-1 0,-2 0,-1 -1,-3 -1,-3 -3,-16 -5,-32 -9,-48 -1,1 -1,2 -2,3 -1,2 -1,1 -3,2 -2,1 -1,1 -3,1 -4,0 -9,1 -12,-2 -2,-2 -1,0 -3,-2 -3,-2 -2,-3 -2,-6 2,-2 1,-2 2,-3 1,-3 3,-3 5,-5 1,-1 1,-2 2,-3 -1,-1 -1,-1 -1,-2 -5,0 -3,-1 -4,-4 0,-1 -1,0 -1,-3 0,-4 -1,-13 -1,-18 0,-2 -1,0 -1,-3 0,-8 -1,-11 -1,-18 0,-1 0,-2 0,-3 -1,-1 -2,-2 -2,-3l-3 -7c0,-1 0,-3 -1,-3 0,1 0,6 0,7 2,2 3,0 3,4 0,8 -5,7 -6,10 0,3 1,3 -1,6 -1,1 -3,3 -3,3 2,1 2,0 3,3 3,4 3,9 5,14 2,4 2,6 -1,10 -3,4 -1,5 -1,10 0,5 -4,3 -1,9 3,7 5,16 8,24 1,2 0,3 1,5 2,0 6,-1 8,0 2,0 5,10 6,12 1,4 -2,4 -2,6 0,1 6,8 8,10 4,7 7,16 7,23 0,3 1,19 1,20 4,10 10,19 14,29 0,1 6,10 7,11 4,2 2,0 4,5 0,1 1,2 1,3zm-95 0c16,0 32,1 46,1 -1,2 -2,3 -1,6 1,4 1,7 4,10 -1,13 1,9 3,18 3,1 3,2 6,2l4 0c2,0 4,0 5,0l0 0 0 0 0 0 0 0 0 0 0 0 26 0 4 0c1,0 3,-1 3,-2 1,-3 -1,-11 -3,-15 -1,-3 -6,-9 -4,-12 1,-1 2,-1 2,-2 28,5 46,12 46,20 0,15 -63,27 -141,27 -78,0 -141,-12 -141,-27 0,-8 18,-15 46,-20 -4,2 -12,5 -14,8 -2,3 0,5 2,6 5,3 9,5 15,7 8,3 11,2 18,0 11,-2 24,-4 35,-6 3,-1 14,-3 16,-6 0,-2 0,-4 -1,-5 -2,-3 -1,-1 -2,-4 -1,-4 -4,-2 -5,-6 10,0 20,-1 30,-1zm-57 -124l-1 0c0,0 0,0 1,0 1,0 0,0 1,0zm-24 -14c-1,-1 -1,-2 -1,-4 2,-1 1,-1 3,-1 1,2 1,1 0,3 0,1 -1,2 -2,2zm47 -57c-3,0 -7,0 -10,1l-1 -2c2,-5 4,-16 7,-20 2,2 3,4 4,7 1,4 3,3 2,6 -1,3 -1,4 -1,8z"/>
  <rect class="fil1" width="436" height="436"/>
 </g>
</svg>
