<?xml version="1.0" encoding="UTF-8"?>
<!DOCTYPE svg PUBLIC "-//W3C//DTD SVG 1.1//EN" "http://www.w3.org/Graphics/SVG/1.1/DTD/svg11.dtd">
<!-- Creator: CorelDRAW X6 -->
<svg xmlns="http://www.w3.org/2000/svg" xml:space="preserve" width="32px" height="32px" version="1.1" style="shape-rendering:geometricPrecision; text-rendering:geometricPrecision; image-rendering:optimizeQuality; fill-rule:evenodd; clip-rule:evenodd"
viewBox="0 0 640 640"
 xmlns:xlink="http://www.w3.org/1999/xlink">
 <defs>
  <style type="text/css">
   <![CDATA[
    .fil0 {fill:none}
    .fil1 {fill:white}
   ]]>
  </style>
 </defs>
 <g id="Layer_x0020_1">
  <metadata id="CorelCorpID_0Corel-Layer"/>
  <rect class="fil0" width="640" height="640"/>
  <path class="fil1" d="M262 60l28 -3 98 0 28 2 52 233 -44 282 -28 8 -101 1 -26 -5 -53 -283 46 -234zm260 425l0 71 -23 0 0 -71 -6 0 0 -25 5 0 0 -219 2 -65 8 -102c2,-3 4,-4 6,0l6 101 2 66 0 219 5 0 0 25 -6 0zm-24 -20l24 0 0 16 -5 0 0 70 -13 0 0 -70 -6 0 0 -16zm-398 -202l7 0c-2,-6 -2,1 -2,-14 0,-5 0,-11 0,-16 -7,-1 -15,-2 -23,-4l-23 -3c0,-13 4,-14 6,-20l27 6c10,3 17,5 29,5 4,-6 0,-5 13,-5 0,-7 2,1 1,-10l0 -20c0,-11 -2,-5 -2,-8l0 -40c0,-2 3,-4 4,-4 3,-2 3,-2 3,-6 0,-6 0,-11 0,-17l11 -3 0 -6 0 0 21 7c3,1 4,2 7,2l0 33 4 0 0 27c0,5 -1,7 -1,12l-6 0 0 32c10,0 10,-1 18,8 3,3 6,6 9,9 -2,4 -5,7 -7,11 0,0 0,0 0,0l1 1c0,0 0,0 0,0 5,5 4,-2 4,14 0,2 4,0 2,0l-5 13c-2,0 3,-2 2,-2 0,13 -8,36 -7,48l-1 23c-1,7 1,4 -5,12l-11 14c0,1 -2,13 -2,15l-3 0c1,2 1,11 1,14 0,2 -2,2 1,2l0 3 7 -3c0,15 -5,32 -5,48 0,16 0,31 0,47l13 4 0 6 -13 0 0 12c0,3 1,3 1,6l-6 0c0,5 -1,0 -1,4l-10 0c-1,-5 -1,3 -1,-11 0,-4 0,-9 0,-13 -3,0 -1,-2 -1,6 0,8 0,9 -1,17l-3 41 -6 0 0 -2 -8 -1c-1,-2 -1,-10 -1,-13l-2 -32c0,-3 0,-6 0,-8 0,-3 -1,-4 -1,-8l-8 0 0 -152 6 0 0 -7c-5,0 -5,0 -8,-1 -3,-2 -3,-8 1,-8l8 0 0 -8 -18 -6c-8,-3 -5,-3 -6,-7 0,0 0,0 0,0 0,0 0,0 0,0 -2,-3 -5,-21 -6,-24l-4 -19zm21 -4l0 -3 2 0 0 -12c-4,-2 -8,-4 -14,-4l0 15c0,3 1,3 2,5l10 0zm65 66l1 -28c1,-4 0,-10 0,-14 0,-5 6,-11 6,-17l-17 -3c0,7 0,14 0,21 0,8 -1,13 -1,20 0,7 5,11 5,18 0,12 -2,4 5,3zm205 -137l13 1 14 -5 -6 -25 -14 0 -13 7 5 23zm-121 -28l-5 24 14 5 15 -1 4 -23 -14 -6 -14 1zm28 -55l0 28 3 3 78 0 5 -4 -1 -27 -5 -4 -76 0 -5 4zm-21 -12l15 -1 97 0 13 1 44 201 -38 247 -14 3 -43 1 6 -133 51 -11 0 -6 -52 -8 -8 -89 -7 0 -7 90 -52 9 0 7 52 9 8 133 -46 0 -13 -3 -45 -247 39 -202z"/>
 </g>
</svg>
